<svg xmlns="http://www.w3.org/2000/svg" viewBox="0 0 64 64">
  <rect width="64" height="64" rx="14" fill="#c0c0c0"/>
  <rect x="8" y="8" width="14" height="14" rx="2" fill="#fff" stroke="#808080" stroke-width="1"/>
  <rect x="25" y="8" width="14" height="14" rx="2" fill="#fff" stroke="#808080" stroke-width="1"/>
  <rect x="42" y="8" width="14" height="14" rx="2" fill="#fff" stroke="#808080" stroke-width="1"/>
  <rect x="8" y="25" width="14" height="14" rx="2" fill="#a0a0a0" stroke="#808080" stroke-width="1"/>
  <text x="15" y="36" text-anchor="middle" font-size="10" font-weight="bold" fill="#0000ff">3</text>
  <rect x="25" y="25" width="14" height="14" rx="2" fill="#fff" stroke="#808080" stroke-width="1"/>
  <rect x="42" y="25" width="14" height="14" rx="2" fill="#fff" stroke="#808080" stroke-width="1"/>
  <rect x="8" y="42" width="14" height="14" rx="2" fill="#fff" stroke="#808080" stroke-width="1"/>
  <rect x="25" y="42" width="14" height="14" rx="2" fill="#a0a0a0" stroke="#808080" stroke-width="1"/>
  <circle cx="32" cy="49" r="5" fill="#333"/>
  <line x1="32" y1="42" x2="32" y2="40" stroke="#333" stroke-width="2"/>
  <line x1="32" y1="56" x2="32" y2="58" stroke="#333" stroke-width="2"/>
  <line x1="25" y1="49" x2="23" y2="49" stroke="#333" stroke-width="2"/>
  <line x1="39" y1="49" x2="41" y2="49" stroke="#333" stroke-width="2"/>
  <rect x="42" y="42" width="14" height="14" rx="2" fill="#fff" stroke="#808080" stroke-width="1"/>
  <text x="49" y="53" text-anchor="middle" font-size="10" fill="#ff3030">🚩</text>
</svg>
