<svg xmlns="http://www.w3.org/2000/svg" viewBox="0 0 100 100">
  <rect width="100" height="100" rx="22" fill="#8e8e93"/>
  <g fill="white" opacity="0.95">
    <path d="M50 18 a4 4 0 0 1 4 4v4a22 22 0 0 1 8 3.3l3-3a4 4 0 0 1 5.7 5.7l-3 3A22 22 0 0 1 71 43h4a4 4 0 0 1 0 8h-4a22 22 0 0 1-3.3 8l3 3a4 4 0 0 1-5.7 5.7l-3-3A22 22 0 0 1 54 68v4a4 4 0 0 1-8 0v-4a22 22 0 0 1-8-3.3l-3 3a4 4 0 0 1-5.7-5.7l3-3A22 22 0 0 1 29 51h-4a4 4 0 0 1 0-8h4a22 22 0 0 1 3.3-8l-3-3a4 4 0 0 1 5.7-5.7l3 3A22 22 0 0 1 46 26v-4a4 4 0 0 1 4-4z"/>
    <circle cx="50" cy="47" r="10" fill="#8e8e93"/>
  </g>
</svg>
